<?xml version="1.0" standalone="no"?>
<!DOCTYPE svg PUBLIC "-//W3C//DTD SVG 20010904//EN"
 "http://www.w3.org/TR/2001/REC-SVG-20010904/DTD/svg10.dtd">
<svg version="1.0" xmlns="http://www.w3.org/2000/svg"
 width="431.000000pt" height="179.000000pt" viewBox="0 0 431.000000 179.000000"
 preserveAspectRatio="xMidYMid meet">

<g transform="translate(0.000000,179.000000) scale(0.100000,-0.100000)"
fill="#000000" stroke="none">
<path d="M3180 1640 c-13 -8 -12 -10 3 -10 9 0 17 5 17 10 0 12 -1 12 -20 0z"/>
<path d="M3268 1643 c6 -2 18 -2 25 0 6 3 1 5 -13 5 -14 0 -19 -2 -12 -5z"/>
<path d="M3358 1633 c7 -3 16 -2 19 1 4 3 -2 6 -13 5 -11 0 -14 -3 -6 -6z"/>
<path d="M763 1607 c0 -7 9 -13 19 -13 10 0 18 1 18 3 0 1 -8 7 -18 12 -13 7
-19 6 -19 -2z"/>
<path d="M1205 1609 c-4 -6 -4 -13 -1 -16 3 -4 6 -1 6 6 0 8 6 11 16 7 8 -3
12 -2 9 4 -8 13 -22 13 -30 -1z"/>
<path d="M1330 1606 c0 -2 7 -9 15 -16 9 -7 15 -8 15 -2 0 5 -7 12 -15 16 -8
3 -15 4 -15 2z"/>
<path d="M3530 1601 c0 -5 -19 -16 -42 -25 -28 -10 -32 -14 -13 -10 49 10 58
10 62 -4 3 -8 -2 -10 -14 -6 -16 5 -16 4 1 -10 25 -20 42 0 22 24 -7 8 -11 21
-9 28 3 6 2 12 -1 12 -3 0 -6 -4 -6 -9z"/>
<path d="M1240 1586 c0 -2 7 -7 16 -10 8 -3 12 -2 9 4 -6 10 -25 14 -25 6z"/>
<path d="M1288 1583 c6 -2 18 -2 25 0 6 3 1 5 -13 5 -14 0 -19 -2 -12 -5z"/>
<path d="M3002 1576 c-36 -20 -36 -25 -3 -24 18 1 34 5 37 9 3 5 -3 6 -13 2
-16 -6 -16 -5 -4 10 15 19 14 20 -17 3z"/>
<path d="M3448 1583 c7 -3 16 -2 19 1 4 3 -2 6 -13 5 -11 0 -14 -3 -6 -6z"/>
<path d="M685 1570 c-4 -6 1 -7 11 -3 12 4 15 3 10 -5 -10 -17 -1 -15 14 3 10
13 9 15 -8 15 -12 0 -24 -4 -27 -10z"/>
<path d="M780 1571 c0 -6 4 -13 10 -16 6 -3 7 1 4 9 -7 18 -14 21 -14 7z"/>
<path d="M1207 1566 c-4 -10 -1 -13 9 -9 15 6 19 23 5 23 -5 0 -11 -7 -14 -14z"/>
<path d="M1290 1566 c0 -2 7 -7 16 -10 8 -3 12 -2 9 4 -6 10 -25 14 -25 6z"/>
<path d="M1430 1560 c-9 -6 -10 -10 -3 -10 6 0 15 5 18 10 8 12 4 12 -15 0z"/>
<path d="M2921 1561 c-10 -7 -7 -9 12 -8 14 1 23 5 20 10 -6 9 -15 9 -32 -2z"/>
<path d="M3586 1562 c-3 -5 1 -9 9 -9 8 0 12 4 9 9 -3 4 -7 8 -9 8 -2 0 -6 -4
-9 -8z"/>
<path d="M1248 1553 c7 -3 16 -2 19 1 4 3 -2 6 -13 5 -11 0 -14 -3 -6 -6z"/>
<path d="M1670 1530 c-9 -6 -10 -10 -3 -10 6 0 15 5 18 10 8 12 4 12 -15 0z"/>
<path d="M625 1520 c-3 -5 3 -10 14 -10 12 0 21 5 21 10 0 6 -6 10 -14 10 -8
0 -18 -4 -21 -10z"/>
<path d="M1495 1510 c-8 -13 15 -13 35 0 12 8 11 10 -7 10 -12 0 -25 -4 -28
-10z"/>
<path d="M569 1489 c-8 -5 -8 -9 0 -13 6 -4 11 -2 11 4 0 7 6 8 18 1 13 -7 19
-6 19 2 0 14 -31 17 -48 6z"/>
<path d="M2213 1493 c9 -2 25 -2 35 0 9 3 1 5 -18 5 -19 0 -27 -2 -17 -5z"/>
<path d="M3673 1493 c-17 -6 -16 -20 1 -26 8 -3 17 1 20 8 6 17 -3 24 -21 18z"/>
<path d="M1280 1480 c0 -5 5 -10 10 -10 6 0 10 5 10 10 0 6 -4 10 -10 10 -5 0
-10 -4 -10 -10z"/>
<path d="M1640 1486 c0 -2 7 -7 16 -10 8 -3 12 -2 9 4 -6 10 -25 14 -25 6z"/>
<path d="M1690 1480 c8 -5 20 -10 25 -10 6 0 3 5 -5 10 -8 5 -19 10 -25 10 -5
0 -3 -5 5 -10z"/>
<path d="M2575 1480 c3 -5 8 -10 11 -10 2 0 4 5 4 10 0 6 -5 10 -11 10 -5 0
-7 -4 -4 -10z"/>
<path d="M1608 1473 c7 -3 16 -2 19 1 4 3 -2 6 -13 5 -11 0 -14 -3 -6 -6z"/>
<path d="M2518 1473 c7 -3 16 -2 19 1 4 3 -2 6 -13 5 -11 0 -14 -3 -6 -6z"/>
<path d="M535 1420 c-10 -11 -15 -23 -12 -27 4 -3 7 0 7 8 0 11 2 11 10 -1 5
-8 10 -13 11 -10 2 14 5 50 4 50 -1 0 -10 -9 -20 -20z"/>
<path d="M3763 1415 c0 -8 4 -12 9 -9 5 3 6 10 3 15 -9 13 -12 11 -12 -6z"/>
<path d="M494 1412 c3 -6 -2 -13 -11 -15 -16 -4 -16 -5 -1 -6 21 -1 32 15 17
25 -7 4 -9 3 -5 -4z"/>
<path d="M3793 1365 c-6 -7 -8 -18 -3 -26 5 -7 7 -17 4 -21 -3 -4 9 -5 27 -1
30 6 32 4 26 -16 -3 -13 -3 -20 0 -17 4 3 12 1 20 -5 10 -9 10 -5 -2 17 -8 16
-25 31 -37 34 -12 3 -24 12 -26 20 -5 13 -3 13 12 1 11 -9 20 -11 27 -4 7 7 4
15 -7 24 -12 9 -15 10 -10 2 4 -7 3 -13 -3 -13 -5 0 -11 4 -13 9 -1 5 -8 3
-15 -4z"/>
<path d="M444 1348 c-19 -23 -19 -23 2 -5 11 9 24 14 29 10 4 -5 5 -2 1 5 -9
16 -10 16 -32 -10z"/>
<path d="M448 1326 c-25 -11 -26 -13 -9 -23 16 -10 20 -8 30 13 6 13 10 24 8
23 -1 0 -14 -6 -29 -13z"/>
<path d="M525 1320 c3 -5 11 -10 16 -10 6 0 7 5 4 10 -3 6 -11 10 -16 10 -6 0
-7 -4 -4 -10z"/>
<path d="M2500 1259 c0 -18 2 -19 15 -9 15 12 12 30 -6 30 -5 0 -9 -10 -9 -21z"/>
<path d="M2685 1270 c3 -5 8 -10 11 -10 2 0 4 5 4 10 0 6 -5 10 -11 10 -5 0
-7 -4 -4 -10z"/>
<path d="M380 1250 c-6 -11 -8 -20 -6 -20 3 0 10 9 16 20 6 11 8 20 6 20 -3 0
-10 -9 -16 -20z"/>
<path d="M3883 1245 c0 -8 4 -12 9 -9 5 3 6 10 3 15 -9 13 -12 11 -12 -6z"/>
<path d="M2420 1235 c0 -9 5 -15 11 -13 6 2 11 8 11 13 0 5 -5 11 -11 13 -6 2
-11 -4 -11 -13z"/>
<path d="M2575 1240 c-3 -5 3 -10 14 -10 11 0 23 5 26 10 3 6 -3 10 -14 10
-11 0 -23 -4 -26 -10z"/>
<path d="M3840 1232 c0 -12 3 -12 15 -2 8 7 15 13 15 15 0 1 -7 2 -15 2 -8 0
-15 -7 -15 -15z"/>
<path d="M2671 1214 c0 -11 3 -14 6 -6 3 7 2 16 -1 19 -3 4 -6 -2 -5 -13z"/>
<path d="M2513 1209 c3 -9 0 -22 -6 -28 -8 -8 -7 -11 4 -11 12 0 12 -2 -1 -11
-13 -9 -13 -10 0 -6 8 2 14 12 12 22 -2 12 1 15 10 9 9 -6 9 -2 -2 12 -22 29
-24 30 -17 13z"/>
<path d="M400 1200 c20 -13 33 -13 25 0 -3 6 -14 10 -23 10 -15 0 -15 -2 -2
-10z"/>
<path d="M354 1187 c-4 -6 -4 -9 1 -5 4 4 14 3 22 -4 7 -6 15 -9 18 -7 2 3 -4
10 -15 17 -15 9 -21 9 -26 -1z"/>
<path d="M2686 1183 c-6 -14 -5 -15 5 -6 7 7 10 15 7 18 -3 3 -9 -2 -12 -12z"/>
<path d="M2711 1184 c0 -11 3 -14 6 -6 3 7 2 16 -1 19 -3 4 -6 -2 -5 -13z"/>
<path d="M440 1176 c0 -8 4 -17 9 -20 5 -4 7 3 4 14 -6 23 -13 26 -13 6z"/>
<path d="M3913 1174 c-15 -16 -16 -24 -4 -24 8 0 24 30 19 35 -2 2 -9 -3 -15
-11z"/>
<path d="M2550 1173 c-1 -4 -1 -72 0 -150 l1 -143 -147 0 c-136 0 -145 1 -133
17 9 11 10 14 2 9 -9 -5 -11 -2 -7 9 14 35 96 50 108 19 10 -26 7 -28 -12 -11
-15 14 -19 15 -19 2 0 -8 4 -12 8 -9 4 2 9 -2 12 -8 3 -10 7 -10 20 1 11 9 17
10 17 2 0 -17 18 -13 50 11 23 16 29 29 28 54 -1 18 -6 30 -12 28 -6 -2 -17 0
-25 5 -12 8 -12 13 -3 24 10 11 9 17 -3 27 -9 8 -15 8 -15 2 0 -6 -8 -13 -17
-15 -10 -2 -5 -3 11 -1 23 3 26 2 17 -10 -9 -11 -20 -12 -49 -4 -55 16 -73 15
-112 -3 -34 -17 -60 -15 -60 3 0 5 4 6 10 3 6 -4 7 1 3 12 -6 17 -5 17 13 1
13 -12 24 -14 34 -8 11 7 12 10 2 10 -7 0 -10 5 -7 10 3 6 1 10 -4 10 -6 0
-11 -5 -11 -11 0 -6 -5 -7 -12 -2 -27 16 -36 10 -35 -22 1 -21 5 -31 12 -27 5
3 -5 -11 -23 -33 -17 -22 -32 -45 -32 -52 0 -7 -8 -13 -17 -14 -11 0 -13 -3
-5 -6 32 -13 5 -23 -63 -23 l-75 0 0 35 0 35 53 0 53 0 -4 43 c-2 23 -9 47
-14 52 -8 7 -9 6 -4 -2 5 -10 -5 -13 -38 -13 l-46 0 0 44 c0 31 -5 46 -16 50
-22 8 -26 8 -19 -4 4 -7 -7 -9 -31 -8 -21 2 -39 8 -41 15 -3 7 4 9 18 6 14 -4
20 -2 16 5 -11 16 -42 7 -40 -12 0 -11 -4 -15 -14 -12 -8 3 -11 1 -8 -4 3 -6
1 -10 -4 -10 -6 0 -11 4 -11 9 0 13 -33 7 -38 -7 -5 -15 42 -16 69 -1 19 10
20 8 17 -28 -3 -33 -7 -38 -30 -41 -25 -3 -28 -7 -28 -43 0 -37 2 -39 30 -39
28 0 30 -3 30 -35 l0 -35 -59 0 -58 0 -5 52 c-4 40 -11 57 -32 74 -25 22 -36
42 -17 30 5 -3 11 4 14 15 5 20 5 20 -14 3 -14 -13 -40 -19 -92 -21 -86 -3
-108 -6 -102 -12 3 -2 -9 -13 -26 -23 -18 -11 -29 -24 -26 -32 8 -20 -26 -14
-38 6 -10 16 -11 16 -23 -2 -11 -18 -10 -20 10 -21 13 -1 29 -1 36 0 6 1 12
-3 12 -9 0 -5 5 -9 11 -7 6 1 13 -3 16 -10 3 -8 -4 -10 -22 -7 -17 3 -24 1
-20 -6 4 -6 20 -7 38 -4 33 7 67 7 125 1 31 -4 45 14 22 28 -5 3 -10 3 -10 -2
0 -4 -11 -9 -25 -9 -15 -1 -25 3 -25 12 0 10 12 14 43 13 37 -2 43 -5 45 -26
1 -12 -2 -23 -6 -24 -4 0 -16 -3 -27 -6 -11 -4 -76 -8 -144 -10 -98 -3 -122
-2 -118 9 2 7 10 12 17 10 10 -2 11 0 2 10 -8 10 -6 34 6 91 10 43 20 76 22
74 3 -3 6 12 7 34 l1 39 -52 0 c-35 0 -53 -4 -53 -12 0 -7 -15 -85 -34 -172
l-33 -159 -18 68 c-9 38 -15 71 -13 74 3 2 1 9 -4 15 -5 6 -19 51 -31 99 l-23
88 -46 -3 c-39 -3 -46 -6 -49 -25 -2 -13 -8 -23 -13 -23 -6 0 -8 -4 -5 -8 5
-8 -27 -148 -41 -182 -7 -18 -10 -29 -11 -57 -3 -38 -20 -26 -27 20 -4 23 -16
79 -26 123 -11 45 -16 89 -13 98 3 9 1 16 -5 16 -6 0 -11 9 -11 20 0 18 -7 20
-55 20 -62 0 -59 8 -34 -89 4 -19 6 -38 3 -43 -3 -5 -1 -14 4 -21 8 -9 82
-312 82 -333 0 -3 -4 -2 -10 1 -5 3 -10 2 -10 -2 0 -8 130 -5 138 2 2 2 21 70
42 152 l38 148 16 -57 c9 -32 23 -83 32 -114 8 -31 13 -63 10 -71 -3 -8 -1
-11 4 -8 9 5 13 -13 13 -50 0 -6 25 -9 63 -7 49 3 64 8 68 20 2 10 10 42 16
72 7 30 16 60 21 66 5 6 6 14 2 17 -3 4 23 7 60 7 l66 0 -17 -29 c-14 -24 -19
-28 -32 -18 -11 9 -11 7 1 -8 9 -11 20 -35 24 -52 8 -39 56 -82 93 -84 23 -1
23 -2 5 -6 -12 -2 -24 -10 -27 -18 -4 -10 5 -9 30 5 19 11 41 20 49 20 7 0 28
12 46 28 18 15 30 22 26 16 -10 -18 54 -44 100 -41 35 2 39 4 35 26 -3 13 1
27 9 32 10 6 10 9 2 9 -7 0 -13 6 -13 14 0 9 -8 12 -25 8 -24 -4 -25 -2 -25
47 l0 51 60 0 60 0 0 -60 c0 -52 4 -64 29 -92 28 -32 32 -33 112 -35 45 0 77
2 70 7 -9 5 -10 9 -2 14 8 5 8 13 1 26 -14 26 -12 34 4 20 11 -8 20 -9 33 -1
10 6 13 11 6 11 -6 0 -9 10 -7 23 4 20 4 20 -5 2 -4 -11 -7 -23 -4 -27 7 -13
-11 -8 -31 7 -11 8 -29 12 -42 9 -46 -12 -64 3 -64 52 l0 44 74 0 73 0 6 -40
c7 -58 43 -109 91 -131 45 -20 120 -25 161 -9 17 7 24 7 20 0 -3 -6 -1 -10 4
-10 6 0 11 7 11 15 0 8 5 15 11 15 5 0 8 4 5 8 -3 5 5 19 18 33 12 13 20 31
18 39 -4 11 2 9 19 -5 l24 -20 -20 23 c-14 18 -16 25 -7 31 9 5 4 11 -15 19
-26 11 -27 11 -9 -3 11 -8 14 -15 7 -15 -7 0 -9 -4 -6 -10 8 -13 2 -13 -29 1
-14 7 -23 16 -20 20 3 5 2 9 -3 10 -4 0 -16 2 -25 4 -10 2 -21 -2 -25 -7 -4
-7 2 -9 15 -6 22 6 22 6 5 -23 -10 -16 -20 -29 -23 -30 -3 0 -13 -2 -22 -4
-20 -4 -30 16 -17 36 14 22 10 32 -6 15 -8 -8 -23 -13 -33 -11 -11 2 -19 -3
-19 -11 0 -10 4 -11 10 -5 6 6 15 4 25 -5 18 -19 10 -28 -18 -19 -20 6 -50 58
-50 85 0 6 54 10 150 10 l150 0 0 -90 0 -90 45 0 c25 0 48 1 51 3 4 1 6 41 5
90 l-2 87 65 0 66 0 0 -91 c0 -57 -4 -88 -10 -84 -6 3 -7 -1 -4 -9 3 -9 10
-16 16 -16 5 0 6 5 3 10 -4 6 13 10 44 10 l51 0 0 90 0 90 33 1 c17 1 36 1 41
0 5 -1 4 4 -2 12 -7 8 -9 17 -5 20 3 4 -10 7 -29 7 -36 0 -36 1 -41 48 -6 59
-11 79 -22 89 -4 4 -5 1 -1 -7 7 -13 6 -13 -6 0 -18 20 -34 25 -95 25 -39 0
-57 -5 -75 -22 l-24 -22 -2 24 c-1 14 6 29 16 35 16 11 16 11 -1 6 -17 -5 -18
0 -16 57 l3 62 -52 3 c-29 2 -52 -1 -52 -5z m218 -237 c7 -4 12 -18 12 -30 0
-22 -4 -24 -65 -25 -36 0 -65 3 -65 8 0 4 9 20 21 35 16 21 27 26 53 23 18 -2
38 -7 44 -11z m-1188 -6 c0 -5 -5 -10 -11 -10 -5 0 -7 5 -4 10 3 6 8 10 11 10
2 0 4 -4 4 -10z m105 -134 c-4 -20 -11 -33 -16 -30 -5 3 -6 -2 -3 -10 3 -9 -2
-17 -15 -21 -35 -11 -45 5 -20 31 13 14 17 24 10 24 -7 0 -9 5 -5 11 3 6 -5 3
-20 -6 -15 -10 -23 -22 -19 -29 9 -14 13 -36 6 -36 -2 0 -11 6 -19 14 -30 30
-12 55 56 77 25 8 46 14 48 13 2 -1 0 -18 -3 -38z m-63 -28 c-7 -7 -12 -8 -12
-2 0 14 12 26 19 19 2 -3 -1 -11 -7 -17z"/>
<path d="M2745 921 c5 -9 0 -12 -16 -11 -13 1 -31 2 -39 1 -13 -1 -13 -3 -1
-10 16 -10 50 -6 64 8 5 5 4 12 -4 16 -8 6 -10 4 -4 -4z"/>
<path d="M370 1155 c8 -11 15 -21 16 -23 1 -2 5 5 8 15 4 9 4 14 0 10 -4 -4
-14 -1 -23 6 -14 11 -15 10 -1 -8z"/>
<path d="M2440 1160 c0 -5 5 -10 11 -10 5 0 7 5 4 10 -3 6 -8 10 -11 10 -2 0
-4 -4 -4 -10z"/>
<path d="M335 1139 c-4 -6 -5 -12 -2 -15 2 -3 7 2 10 11 7 17 1 20 -8 4z"/>
<path d="M1670 1142 c0 -4 10 -13 21 -21 19 -11 21 -11 15 4 -3 9 -6 19 -6 21
0 2 -7 4 -15 4 -8 0 -15 -3 -15 -8z"/>
<path d="M1945 1139 c-11 -16 -1 -19 13 -3 7 8 8 14 3 14 -5 0 -13 -5 -16 -11z"/>
<path d="M2990 905 c0 -160 -3 -244 -10 -240 -6 4 -7 -1 -3 -11 4 -12 3 -15
-5 -10 -17 10 -15 1 4 -14 8 -8 14 -9 13 -4 -5 28 3 34 51 34 l50 0 1 220 c1
121 2 230 2 243 1 20 -4 22 -51 25 l-52 3 0 -246z"/>
<path d="M3242 1134 c9 -9 21 -15 27 -13 6 2 -2 10 -17 17 -25 11 -25 11 -10
-4z"/>
<path d="M3331 1145 c1 -19 18 -51 18 -35 0 8 -4 22 -9 30 -5 8 -9 11 -9 5z"/>
<path d="M3405 1140 c3 -5 8 -10 11 -10 2 0 4 5 4 10 0 6 -5 10 -11 10 -5 0
-7 -4 -4 -10z"/>
<path d="M356 1125 c-9 -26 -7 -32 5 -12 6 10 9 21 6 23 -2 3 -7 -2 -11 -11z"/>
<path d="M2671 1124 c0 -11 3 -14 6 -6 3 7 2 16 -1 19 -3 4 -6 -2 -5 -13z"/>
<path d="M3165 1130 c-3 -5 -1 -10 4 -10 6 0 11 5 11 10 0 6 -2 10 -4 10 -3 0
-8 -4 -11 -10z"/>
<path d="M1246 1121 c-4 -5 -2 -12 3 -15 5 -4 12 -2 15 3 4 5 2 12 -3 15 -5 4
-12 2 -15 -3z"/>
<path d="M2370 1120 c-13 -8 -12 -10 3 -10 9 0 17 5 17 10 0 12 -1 12 -20 0z"/>
<path d="M2825 1120 c-3 -5 -1 -10 4 -10 6 0 11 5 11 10 0 6 -2 10 -4 10 -3 0
-8 -4 -11 -10z"/>
<path d="M3219 1128 c-7 -24 -10 -48 -10 -70 1 -24 -3 -28 -26 -28 -27 0 -28
-2 -25 -43 4 -41 6 -44 29 -39 l24 5 -3 -106 c-2 -58 0 -103 5 -100 6 4 11
-21 10 -54 -1 -7 3 -10 8 -7 5 3 9 -4 9 -14 0 -21 26 -49 37 -39 3 4 -2 9 -11
13 -23 9 -20 23 4 17 11 -3 20 -8 20 -12 0 -4 28 -3 63 1 34 5 67 9 72 10 6 1
10 11 10 24 0 12 -4 20 -9 17 -5 -3 -7 0 -4 8 8 23 -18 39 -51 33 -20 -4 -31
-2 -31 5 0 6 5 11 12 11 6 0 8 3 5 6 -4 4 -13 2 -21 -5 -20 -17 -26 6 -26 105
l0 84 46 0 c30 0 43 -4 39 -11 -4 -6 0 -6 12 1 14 9 18 21 15 44 -5 41 -23 77
-35 69 -5 -3 -3 -9 4 -14 9 -6 -3 -9 -33 -9 -48 0 -48 0 -48 33 0 18 6 39 13
46 10 11 10 13 0 7 -8 -4 -13 -2 -13 5 0 10 -3 10 -12 1 -15 -15 -82 -16 -73
-2 3 6 4 10 1 10 -3 0 -6 -1 -7 -2z"/>
<path d="M3941 1114 c0 -11 3 -14 6 -6 3 7 2 16 -1 19 -3 4 -6 -2 -5 -13z"/>
<path d="M1020 1111 c0 -5 6 -11 13 -14 8 -3 14 1 14 9 0 8 -6 14 -14 14 -7 0
-13 -4 -13 -9z"/>
<path d="M1287 1109 c7 -7 15 -10 18 -7 3 3 -2 9 -12 12 -14 6 -15 5 -6 -5z"/>
<path d="M1740 1109 c0 -5 5 -7 10 -4 6 3 10 8 10 11 0 2 -4 4 -10 4 -5 0 -10
-5 -10 -11z"/>
<path d="M2058 1113 c6 -2 18 -2 25 0 6 3 1 5 -13 5 -14 0 -19 -2 -12 -5z"/>
<path d="M3900 1104 c0 -8 6 -11 15 -8 8 4 15 9 15 13 0 4 -7 8 -15 8 -8 0
-15 -6 -15 -13z"/>
<path d="M1600 1100 c0 -5 5 -10 10 -10 6 0 10 5 10 10 0 6 -4 10 -10 10 -5 0
-10 -4 -10 -10z"/>
<path d="M804 1086 c1 -8 5 -18 8 -22 4 -3 5 1 4 10 -1 8 -5 18 -8 22 -4 3 -5
-1 -4 -10z"/>
<path d="M2513 1093 c-18 -7 -16 -20 2 -20 8 0 15 6 15 14 0 7 -1 13 -2 12 -2
0 -9 -3 -15 -6z"/>
<path d="M3160 1087 c0 -8 7 -18 16 -21 11 -4 14 -1 12 11 -4 21 -28 30 -28
10z"/>
<path d="M953 1075 c0 -8 4 -12 9 -9 4 3 8 9 8 15 0 5 -4 9 -8 9 -5 0 -9 -7
-9 -15z"/>
<path d="M1287 1079 c7 -7 15 -10 18 -7 3 3 -2 9 -12 12 -14 6 -15 5 -6 -5z"/>
<path d="M2704 1079 c-11 -18 11 -32 25 -16 9 12 8 16 -3 20 -9 4 -18 1 -22
-4z"/>
<path d="M3345 1079 c-4 -6 -5 -12 -2 -15 2 -3 7 2 10 11 7 17 1 20 -8 4z"/>
<path d="M1655 1070 c3 -5 8 -10 11 -10 2 0 4 5 4 10 0 6 -5 10 -11 10 -5 0
-7 -4 -4 -10z"/>
<path d="M1490 1060 c-9 -6 -10 -10 -3 -10 6 0 15 5 18 10 8 12 4 12 -15 0z"/>
<path d="M1680 1052 c0 -12 3 -12 15 -2 8 7 15 13 15 15 0 1 -7 2 -15 2 -8 0
-15 -7 -15 -15z"/>
<path d="M2176 1057 c3 -10 9 -15 12 -12 3 3 0 11 -7 18 -10 9 -11 8 -5 -6z"/>
<path d="M2855 1061 c3 -5 0 -11 -7 -14 -7 -2 -5 -3 4 -2 9 2 19 -5 21 -14 3
-11 5 -10 6 5 0 12 -6 25 -15 28 -8 3 -12 2 -9 -3z"/>
<path d="M1230 1049 c0 -5 5 -7 10 -4 6 3 10 8 10 11 0 2 -4 4 -10 4 -5 0 -10
-5 -10 -11z"/>
<path d="M1850 1056 c0 -2 7 -7 16 -10 8 -3 12 -2 9 4 -6 10 -25 14 -25 6z"/>
<path d="M808 1023 c5 -21 7 -23 10 -9 2 10 0 22 -6 28 -6 6 -7 0 -4 -19z"/>
<path d="M1260 1028 c0 -19 2 -20 10 -8 8 12 10 12 10 1 0 -8 2 -12 5 -9 8 7
-5 38 -16 38 -5 0 -9 -10 -9 -22z"/>
<path d="M2117 1019 c4 -15 8 -17 14 -8 8 14 3 29 -11 29 -4 0 -6 -9 -3 -21z"/>
<path d="M1472 1018 c-16 -16 -15 -25 1 -25 7 0 13 9 13 19 0 21 1 21 -14 6z"/>
<path d="M1500 1019 c0 -5 5 -7 10 -4 6 3 10 8 10 11 0 2 -4 4 -10 4 -5 0 -10
-5 -10 -11z"/>
<path d="M2501 1014 c0 -11 3 -14 6 -6 3 7 2 16 -1 19 -3 4 -6 -2 -5 -13z"/>
<path d="M3127 1015 c-4 -8 -3 -16 1 -19 4 -3 9 4 9 15 2 23 -3 25 -10 4z"/>
<path d="M3460 1020 c0 -5 5 -10 10 -10 6 0 10 5 10 10 0 6 -4 10 -10 10 -5 0
-10 -4 -10 -10z"/>
<path d="M3943 994 c0 -17 2 -22 7 -13 5 6 6 18 3 26 -8 19 -10 16 -10 -13z"/>
<path d="M1821 994 c0 -11 3 -14 6 -6 3 7 2 16 -1 19 -3 4 -6 -2 -5 -13z"/>
<path d="M2141 994 c0 -11 3 -14 6 -6 3 7 2 16 -1 19 -3 4 -6 -2 -5 -13z"/>
<path d="M1230 989 c0 -5 5 -7 10 -4 6 3 10 8 10 11 0 2 -4 4 -10 4 -5 0 -10
-5 -10 -11z"/>
<path d="M1013 973 c-3 -10 -8 -22 -11 -27 -3 -5 0 -6 5 -3 11 7 25 47 17 47
-3 0 -7 -8 -11 -17z"/>
<path d="M1816 955 c4 -8 8 -15 10 -15 2 0 4 7 4 15 0 8 -4 15 -10 15 -5 0 -7
-7 -4 -15z"/>
<path d="M2490 966 c0 -2 7 -6 15 -10 8 -3 15 -1 15 4 0 6 -7 10 -15 10 -8 0
-15 -2 -15 -4z"/>
<path d="M1262 945 c1 -11 -1 -27 -6 -35 -7 -11 -5 -11 9 1 14 14 15 21 6 35
-11 18 -11 18 -9 -1z"/>
<path d="M2112 944 c-7 -8 -8 -14 -3 -14 10 0 25 19 20 25 -2 1 -10 -3 -17
-11z"/>
<path d="M830 945 c0 -5 5 -17 10 -25 5 -8 10 -10 10 -5 0 6 -5 17 -10 25 -5
8 -10 11 -10 5z"/>
<path d="M2080 931 c0 -6 4 -13 10 -16 6 -3 7 1 4 9 -7 18 -14 21 -14 7z"/>
<path d="M3138 928 c-10 -6 -8 -8 5 -8 9 0 17 -7 17 -16 0 -8 5 -12 10 -9 6 3
10 14 10 24 0 19 -20 23 -42 9z"/>
<path d="M3338 933 c6 -2 10 -9 6 -14 -9 -15 2 -10 16 6 10 13 9 15 -11 14
-13 0 -18 -3 -11 -6z"/>
<path d="M3420 930 c0 -5 5 -10 11 -10 5 0 7 5 4 10 -3 6 -8 10 -11 10 -2 0
-4 -4 -4 -10z"/>
<path d="M3941 924 c0 -11 3 -14 6 -6 3 7 2 16 -1 19 -3 4 -6 -2 -5 -13z"/>
<path d="M1435 910 c-3 -5 -1 -10 4 -10 6 0 11 5 11 10 0 6 -2 10 -4 10 -3 0
-8 -4 -11 -10z"/>
<path d="M1840 899 c0 -5 5 -7 10 -4 6 3 10 8 10 11 0 2 -4 4 -10 4 -5 0 -10
-5 -10 -11z"/>
<path d="M3351 876 c-7 -8 -8 -17 -3 -20 6 -3 15 1 21 8 7 8 8 17 3 20 -6 3
-15 -1 -21 -8z"/>
<path d="M3940 885 c0 -5 5 -17 10 -25 5 -8 10 -10 10 -5 0 6 -5 17 -10 25 -5
8 -10 11 -10 5z"/>
<path d="M3921 864 c0 -11 3 -14 6 -6 3 7 2 16 -1 19 -3 4 -6 -2 -5 -13z"/>
<path d="M3400 861 c0 -5 14 -9 30 -9 17 1 30 5 30 10 0 4 -13 8 -30 8 -16 0
-30 -4 -30 -9z"/>
<path d="M1130 839 c0 -5 5 -7 10 -4 6 3 10 8 10 11 0 2 -4 4 -10 4 -5 0 -10
-5 -10 -11z"/>
<path d="M2296 822 c-3 -4 4 -9 15 -9 23 -2 25 3 4 10 -8 4 -16 3 -19 -1z"/>
<path d="M1851 799 c-7 -12 -10 -23 -8 -26 3 -3 11 5 17 17 15 28 8 35 -9 9z"/>
<path d="M2670 737 c0 -53 -5 -88 -12 -96 -11 -10 -10 -11 5 -6 14 6 17 21 17
96 0 49 -2 89 -5 89 -3 0 -5 -37 -5 -83z"/>
<path d="M1136 793 c-6 -14 -5 -15 5 -6 7 7 10 15 7 18 -3 3 -9 -2 -12 -12z"/>
<path d="M1374 795 c-8 -20 4 -67 15 -61 5 3 11 17 13 31 4 20 3 23 -8 14 -17
-14 -19 2 -2 19 9 9 9 12 0 12 -7 0 -15 -7 -18 -15z"/>
<path d="M2101 794 c0 -11 3 -14 6 -6 3 7 2 16 -1 19 -3 4 -6 -2 -5 -13z"/>
<path d="M2030 780 c0 -5 7 -10 15 -10 8 0 15 5 15 10 0 6 -7 10 -15 10 -8 0
-15 -4 -15 -10z"/>
<path d="M2355 779 c-4 -6 -5 -12 -2 -15 2 -3 7 2 10 11 7 17 1 20 -8 4z"/>
<path d="M3420 781 c0 -5 6 -14 14 -20 16 -13 32 2 21 19 -8 12 -35 13 -35 1z"/>
<path d="M1156 765 c4 -8 10 -15 15 -15 4 0 6 7 3 15 -4 8 -10 15 -15 15 -4 0
-6 -7 -3 -15z"/>
<path d="M1425 769 c-4 -6 -5 -12 -2 -15 2 -3 7 2 10 11 7 17 1 20 -8 4z"/>
<path d="M1445 759 c-4 -6 -5 -12 -2 -15 2 -3 7 2 10 11 7 17 1 20 -8 4z"/>
<path d="M1123 746 c-13 -6 -23 -17 -23 -24 0 -11 3 -10 15 1 8 9 20 17 27 20
7 2 11 6 8 9 -3 2 -15 -1 -27 -6z"/>
<path d="M1870 745 c-7 -9 -10 -18 -6 -22 3 -3 6 0 6 8 0 12 2 12 9 0 7 -10 4
-19 -7 -29 -9 -7 -12 -11 -5 -8 6 4 17 -2 23 -11 9 -15 10 -11 5 17 -3 19 -6
41 -7 48 -2 15 -3 15 -18 -3z"/>
<path d="M3495 749 c-10 -15 3 -25 16 -12 7 7 7 13 1 17 -6 3 -14 1 -17 -5z"/>
<path d="M3924 730 c0 -13 4 -16 10 -10 7 7 7 13 0 20 -6 6 -10 3 -10 -10z"/>
<path d="M1450 715 c7 -9 15 -13 17 -11 7 7 -7 26 -19 26 -6 0 -6 -6 2 -15z"/>
<path d="M2495 720 c-3 -5 -1 -10 4 -10 6 0 11 5 11 10 0 6 -2 10 -4 10 -3 0
-8 -4 -11 -10z"/>
<path d="M2155 707 c-14 -11 -15 -16 -5 -22 9 -5 11 -4 6 3 -11 19 5 14 21 -5
13 -16 13 -16 4 3 -6 12 -7 24 -4 28 11 11 -3 6 -22 -7z"/>
<path d="M421 684 c0 -11 3 -14 6 -6 3 7 2 16 -1 19 -3 4 -6 -2 -5 -13z"/>
<path d="M1357 694 c-7 -12 19 -47 32 -43 6 2 2 14 -8 28 -10 13 -21 20 -24
15z"/>
<path d="M2481 684 c0 -11 3 -14 6 -6 3 7 2 16 -1 19 -3 4 -6 -2 -5 -13z"/>
<path d="M2500 690 c0 -5 5 -10 10 -10 6 0 10 5 10 10 0 6 -4 10 -10 10 -5 0
-10 -4 -10 -10z"/>
<path d="M385 682 c-6 -4 -11 -12 -10 -19 0 -14 15 -30 16 -17 0 5 2 17 4 27
4 19 4 19 -10 9z"/>
<path d="M1071 678 c-1 -9 -10 -24 -22 -32 -21 -14 -19 -36 4 -36 8 0 8 3 -1
9 -10 6 -10 10 3 21 12 10 15 10 15 -1 0 -9 3 -10 10 -3 7 7 7 19 1 35 -7 16
-10 19 -10 7z"/>
<path d="M1105 681 c-9 -15 36 -25 49 -11 8 10 8 11 -1 6 -7 -4 -13 -2 -13 3
0 13 -27 14 -35 2z"/>
<path d="M1445 680 c-3 -6 1 -7 9 -4 18 7 21 14 7 14 -6 0 -13 -4 -16 -10z"/>
<path d="M1919 677 c6 -8 7 -18 3 -22 -4 -5 -1 -5 6 -1 10 6 10 11 1 22 -6 8
-14 14 -16 14 -3 0 0 -6 6 -13z"/>
<path d="M1476 671 c-4 -7 -5 -15 -2 -18 9 -9 19 4 14 18 -4 11 -6 11 -12 0z"/>
<path d="M1867 673 c-4 -3 -7 -11 -7 -17 0 -6 5 -5 12 2 6 6 9 14 7 17 -3 3
-9 2 -12 -2z"/>
<path d="M883 656 c0 -8 9 -18 19 -22 10 -3 18 -11 18 -17 0 -7 4 -6 10 3 8
12 11 13 19 1 6 -9 11 -10 15 -2 4 6 19 9 34 6 27 -5 27 -5 3 5 -13 6 -39 9
-57 8 -23 -1 -38 4 -47 16 -12 16 -14 16 -14 2z"/>
<path d="M1345 661 c-3 -5 -1 -12 5 -16 5 -3 10 1 10 9 0 18 -6 21 -15 7z"/>
<path d="M1676 659 c2 -4 1 -9 -3 -12 -5 -2 -3 -2 4 -1 6 2 14 -2 16 -9 2 -7
8 -8 13 -3 5 5 4 11 -4 13 -6 3 -10 8 -8 12 3 4 -1 8 -9 8 -8 0 -12 -4 -9 -8z"/>
<path d="M2132 650 c-9 -15 -9 -22 4 -35 19 -19 20 -19 20 4 0 13 -5 17 -16
13 -13 -5 -13 -3 -1 11 8 10 12 19 10 22 -3 2 -10 -4 -17 -15z"/>
<path d="M2451 647 c-13 -21 -12 -21 5 -5 10 10 16 20 13 22 -3 3 -11 -5 -18
-17z"/>
<path d="M2920 660 c0 -5 7 -10 15 -10 8 0 15 5 15 10 0 6 -7 10 -15 10 -8 0
-15 -4 -15 -10z"/>
<path d="M3130 660 c0 -5 7 -10 15 -10 8 0 15 5 15 10 0 6 -7 10 -15 10 -8 0
-15 -4 -15 -10z"/>
<path d="M2479 643 c-13 -16 -12 -17 4 -4 16 13 21 21 13 21 -2 0 -10 -8 -17
-17z"/>
<path d="M3096 652 c-3 -5 1 -9 9 -9 8 0 12 4 9 9 -3 4 -7 8 -9 8 -2 0 -6 -4
-9 -8z"/>
<path d="M3879 637 c10 -25 24 -26 26 -2 1 13 -5 21 -16 21 -12 0 -15 -5 -10
-19z"/>
<path d="M432 638 c6 -18 28 -21 28 -4 0 9 -7 16 -16 16 -9 0 -14 -5 -12 -12z"/>
<path d="M1092 627 c-22 -23 -22 -24 -2 -22 11 1 23 5 27 10 5 4 2 5 -4 1 -16
-9 -17 6 -1 22 7 7 10 12 7 12 -3 0 -15 -11 -27 -23z"/>
<path d="M1274 642 c-18 -12 -24 -40 -9 -46 17 -6 30 10 15 19 -8 5 -7 11 1
21 13 15 10 18 -7 6z"/>
<path d="M2697 636 c-4 -10 -1 -13 8 -9 8 3 12 9 9 14 -7 12 -11 11 -17 -5z"/>
<path d="M3197 636 c-4 -9 -3 -15 2 -11 5 3 11 1 13 -4 1 -5 10 -2 18 7 13 14
12 15 -2 9 -9 -3 -18 -1 -21 6 -2 6 -6 3 -10 -7z"/>
<path d="M835 630 c-8 -13 0 -23 20 -26 19 -3 19 10 1 25 -10 9 -16 9 -21 1z"/>
<path d="M1296 631 c-4 -5 3 -7 14 -4 23 6 26 13 6 13 -8 0 -17 -4 -20 -9z"/>
<path d="M1606 624 c-5 -13 -3 -14 6 -7 7 6 20 13 28 16 10 4 8 6 -6 6 -12 1
-25 -6 -28 -15z"/>
<path d="M1725 631 c-6 -11 13 -26 22 -17 4 3 1 6 -6 6 -7 0 -9 5 -6 10 3 6 4
10 1 10 -3 0 -7 -4 -11 -9z"/>
<path d="M2079 638 c-6 -21 -5 -37 2 -32 5 3 7 9 4 14 -3 4 1 11 7 13 10 4 10
6 1 6 -7 1 -13 0 -14 -1z"/>
<path d="M2250 630 c-8 -5 -10 -10 -5 -10 6 0 17 5 25 10 8 5 11 10 5 10 -5 0
-17 -5 -25 -10z"/>
<path d="M2390 633 c0 -19 21 -27 33 -13 9 10 9 11 -2 5 -8 -4 -17 -2 -22 6
-6 9 -9 10 -9 2z"/>
<path d="M2592 631 c-11 -7 -11 -9 0 -13 17 -6 38 1 38 13 0 11 -21 11 -38 0z"/>
<path d="M2821 636 c12 -10 59 -15 59 -6 0 5 -14 10 -32 10 -17 0 -29 -2 -27
-4z"/>
<path d="M3463 630 c-28 -11 -30 -20 -4 -20 10 0 21 7 25 15 3 8 4 15 3 14 -1
0 -12 -4 -24 -9z"/>
<path d="M1230 620 c0 -5 5 -10 10 -10 6 0 10 5 10 10 0 6 -4 10 -10 10 -5 0
-10 -4 -10 -10z"/>
<path d="M3060 610 c6 -11 13 -20 16 -20 2 0 0 9 -6 20 -6 11 -13 20 -16 20
-2 0 0 -9 6 -20z"/>
<path d="M3255 617 c-14 -5 -25 -13 -25 -19 0 -7 4 -7 13 -1 6 6 27 11 46 11
18 0 38 5 44 11 12 12 -38 11 -78 -2z"/>
<path d="M1310 616 c0 -2 7 -7 16 -10 8 -3 12 -2 9 4 -6 10 -25 14 -25 6z"/>
<path d="M1630 616 c0 -2 7 -7 16 -10 8 -3 12 -2 9 4 -6 10 -25 14 -25 6z"/>
<path d="M2500 610 c-8 -5 -10 -10 -5 -11 6 0 20 -2 32 -3 18 -2 20 0 12 11
-13 15 -19 16 -39 3z"/>
<path d="M2723 610 c-34 -14 -28 -21 7 -9 17 6 30 13 30 15 0 6 -12 4 -37 -6z"/>
<path d="M2967 604 c6 -15 23 -19 23 -5 0 5 -7 11 -14 14 -10 4 -13 1 -9 -9z"/>
<path d="M3021 603 c8 -9 8 -13 0 -13 -6 0 -11 -4 -11 -10 0 -5 9 -10 20 -10
17 0 19 3 11 19 -6 10 -8 20 -6 23 3 3 -2 5 -10 5 -11 0 -12 -4 -4 -14z"/>
<path d="M2117 599 c7 -7 15 -10 18 -7 3 3 -2 9 -12 12 -14 6 -15 5 -6 -5z"/>
<path d="M2318 603 c7 -3 16 -2 19 1 4 3 -2 6 -13 5 -11 0 -14 -3 -6 -6z"/>
<path d="M2763 603 c-15 -5 -17 -23 -4 -23 5 0 11 7 15 15 3 8 4 15 3 14 -1 0
-8 -3 -14 -6z"/>
<path d="M1668 583 c7 -3 16 -2 19 1 4 3 -2 6 -13 5 -11 0 -14 -3 -6 -6z"/>
<path d="M1888 583 c7 -3 16 -2 19 1 4 3 -2 6 -13 5 -11 0 -14 -3 -6 -6z"/>
<path d="M3844 565 c0 -19 3 -22 13 -13 10 8 10 14 2 24 -15 18 -15 18 -15
-11z"/>
<path d="M2785 569 c4 -5 10 -7 15 -4 4 3 10 -2 14 -10 3 -8 11 -15 18 -15 10
0 10 2 -1 9 -17 11 3 25 22 15 7 -4 8 -3 4 2 -11 12 -79 15 -72 3z"/>
<path d="M435 559 c-11 -16 -1 -19 13 -3 7 8 8 14 3 14 -5 0 -13 -5 -16 -11z"/>
<path d="M945 560 c-4 -6 6 -10 22 -10 22 0 25 2 13 10 -19 12 -27 12 -35 0z"/>
<path d="M1450 560 c-11 -8 -7 -9 15 -4 37 8 45 14 19 14 -10 0 -26 -5 -34
-10z"/>
<path d="M866 553 c-11 -11 -6 -23 9 -23 8 0 15 4 15 9 0 13 -16 22 -24 14z"/>
<path d="M456 541 c-3 -5 1 -11 9 -14 9 -4 12 -1 8 9 -6 16 -10 17 -17 5z"/>
<path d="M1220 535 c0 -8 7 -15 15 -15 8 0 15 7 15 15 0 8 -7 15 -15 15 -8 0
-15 -7 -15 -15z"/>
<path d="M2940 540 c0 -5 4 -10 9 -10 6 0 13 5 16 10 3 6 -1 10 -9 10 -9 0
-16 -4 -16 -10z"/>
<path d="M475 501 c-9 -8 6 -20 19 -15 9 3 13 -1 13 -12 -1 -9 6 -18 16 -19 9
-2 17 1 17 6 0 6 6 7 13 3 9 -6 9 -5 0 8 -7 8 -9 19 -5 23 4 5 1 5 -6 1 -7 -4
-10 -11 -7 -16 3 -4 -1 -10 -9 -13 -9 -4 -12 2 -11 17 2 16 -3 22 -17 22 -10
0 -21 -2 -23 -5z"/>
<path d="M1361 507 c2 -2 11 -8 20 -15 12 -9 16 -9 16 1 0 7 -9 14 -20 14 -11
1 -18 1 -16 0z"/>
<path d="M2896 497 c3 -10 9 -15 12 -12 3 3 0 11 -7 18 -10 9 -11 8 -5 -6z"/>
<path d="M3764 496 c1 -8 5 -18 8 -22 4 -3 5 1 4 10 -1 8 -5 18 -8 22 -4 3 -5
-1 -4 -10z"/>
<path d="M3680 444 c0 -8 5 -12 10 -9 6 4 8 11 5 16 -9 14 -15 11 -15 -7z"/>
<path d="M541 436 c-9 -10 -8 -15 2 -19 8 -3 13 3 13 14 0 23 0 23 -15 5z"/>
<path d="M610 441 c0 -6 5 -13 10 -16 6 -3 10 1 10 9 0 9 -4 16 -10 16 -5 0
-10 -4 -10 -9z"/>
<path d="M2939 433 c-13 -16 -12 -17 4 -4 16 13 21 21 13 21 -2 0 -10 -8 -17
-17z"/>
<path d="M1320 426 c0 -2 7 -9 15 -16 13 -11 14 -10 9 4 -5 14 -24 23 -24 12z"/>
<path d="M2124 419 c-8 -14 11 -33 25 -25 16 10 13 36 -3 36 -8 0 -18 -5 -22
-11z"/>
<path d="M600 415 c0 -6 9 -18 19 -27 18 -16 20 -15 18 2 -1 10 -5 16 -10 13
-5 -3 -13 1 -18 8 -5 8 -9 9 -9 4z"/>
<path d="M3689 403 c-12 -16 -12 -17 2 -6 9 7 20 9 24 5 5 -4 5 -1 1 6 -9 16
-11 15 -27 -5z"/>
<path d="M605 370 c3 -5 8 -10 11 -10 2 0 4 5 4 10 0 6 -5 10 -11 10 -5 0 -7
-4 -4 -10z"/>
<path d="M1300 366 c0 -8 4 -17 9 -20 5 -4 7 3 4 14 -6 23 -13 26 -13 6z"/>
<path d="M1846 358 c-21 -30 -20 -71 2 -91 22 -20 75 -22 91 -4 16 20 4 26
-35 20 -22 -4 -34 -2 -34 6 0 6 17 11 40 11 36 0 40 3 40 24 0 54 -74 78 -104
34z m69 -18 c4 -6 -5 -10 -19 -10 -14 0 -26 5 -26 10 0 6 9 10 19 10 11 0 23
-4 26 -10z"/>
<path d="M1970 314 c0 -57 2 -64 19 -64 17 0 20 8 23 48 3 39 6 47 23 47 17 0
20 -8 23 -47 2 -34 7 -48 18 -48 18 0 20 103 1 118 -6 6 -33 10 -60 10 l-47 0
0 -64z"/>
<path d="M2120 309 c0 -49 -4 -75 -15 -86 -17 -16 -12 -33 10 -33 33 0 45 30
45 111 0 72 -2 79 -20 79 -18 0 -20 -7 -20 -71z"/>
<path d="M2214 372 c-31 -21 -37 -76 -11 -109 13 -18 73 -16 91 3 22 21 20 77
-2 97 -19 18 -59 22 -78 9z m61 -41 c8 -26 -4 -51 -25 -51 -25 0 -33 16 -26
46 8 29 42 33 51 5z"/>
<path d="M2330 372 c0 -5 11 -36 24 -69 25 -65 24 -73 -6 -73 -21 0 -24 -28
-4 -36 30 -11 55 17 85 97 17 44 31 83 31 85 0 2 -8 4 -18 4 -13 0 -23 -13
-32 -42 l-13 -43 -18 43 c-10 23 -25 42 -34 42 -8 0 -15 -4 -15 -8z"/>
<path d="M2956 365 c-3 -8 -1 -15 4 -15 6 0 10 7 10 15 0 8 -2 15 -4 15 -2 0
-6 -7 -10 -15z"/>
<path d="M680 344 c0 -1 6 -7 14 -13 10 -9 16 -8 26 4 11 13 9 15 -14 13 -14
-1 -26 -3 -26 -4z"/>
<path d="M940 340 c0 -5 5 -10 11 -10 5 0 7 5 4 10 -3 6 -8 10 -11 10 -2 0 -4
-4 -4 -10z"/>
<path d="M3545 340 c-3 -6 1 -7 9 -4 18 7 21 14 7 14 -6 0 -13 -4 -16 -10z"/>
<path d="M776 300 c10 -16 19 -28 21 -26 6 6 -20 56 -29 56 -5 0 -1 -13 8 -30z"/>
<path d="M3100 315 c46 -18 59 -18 36 0 -11 8 -31 15 -45 14 -24 0 -23 -2 9
-14z"/>
<path d="M3526 317 c3 -10 9 -15 12 -12 3 3 0 11 -7 18 -10 9 -11 8 -5 -6z"/>
<path d="M3562 314 c-14 -16 -5 -18 17 -5 7 5 9 11 5 14 -5 3 -15 -1 -22 -9z"/>
<path d="M745 300 c3 -5 8 -10 11 -10 2 0 4 5 4 10 0 6 -5 10 -11 10 -5 0 -7
-4 -4 -10z"/>
<path d="M2997 296 c-4 -10 0 -12 14 -9 22 6 26 23 5 23 -8 0 -16 -6 -19 -14z"/>
<path d="M1285 280 c4 -6 11 -8 16 -5 14 9 11 15 -7 15 -8 0 -12 -5 -9 -10z"/>
<path d="M3367 270 c-5 -20 9 -38 20 -26 4 3 1 6 -7 6 -10 0 -10 3 -1 14 7 8
8 17 3 20 -6 3 -12 -3 -15 -14z"/>
<path d="M3158 258 c5 -5 16 -8 23 -6 8 3 3 7 -10 11 -17 4 -21 3 -13 -5z"/>
<path d="M1113 253 c9 -2 15 -9 12 -14 -3 -5 1 -6 10 -2 13 5 14 7 3 14 -7 5
-20 8 -28 8 -11 -1 -10 -3 3 -6z"/>
<path d="M3083 243 c9 -2 25 -2 35 0 9 3 1 5 -18 5 -19 0 -27 -2 -17 -5z"/>
<path d="M1068 233 c7 -3 16 -2 19 1 4 3 -2 6 -13 5 -11 0 -14 -3 -6 -6z"/>
</g>
</svg>
